<svg width="17" height="17" viewBox="0 0 17 17" fill="none" xmlns="http://www.w3.org/2000/svg">
<g id="icon" clip-path="url(#clip0_87_198)">
<path id="Vector" d="M6.64724 8.86261C6.29849 8.74636 6.29849 8.25388 6.64724 8.13763L8.69429 7.45599C9.14429 7.30595 9.55315 7.05316 9.88847 6.71765C10.2238 6.38214 10.4764 5.97314 10.6262 5.52306L11.3078 3.47706C11.4241 3.12831 11.9165 3.12831 12.0328 3.47706L12.7144 5.52412C12.8645 5.97412 13.1173 6.38298 13.4528 6.7183C13.7883 7.05363 14.1973 7.30619 14.6473 7.45599L16.6933 8.13763C16.7697 8.1627 16.8362 8.21124 16.8834 8.27633C16.9305 8.34143 16.9559 8.41975 16.9559 8.50012C16.9559 8.5805 16.9305 8.65882 16.8834 8.72391C16.8362 8.78901 16.7697 8.83755 16.6933 8.86261L14.6463 9.54426C14.1964 9.69419 13.7876 9.94682 13.4523 10.2821C13.117 10.6175 12.8644 11.0262 12.7144 11.4761L12.0328 13.5232C12.0077 13.5995 11.9592 13.666 11.8941 13.7132C11.829 13.7603 11.7507 13.7857 11.6703 13.7857C11.5899 13.7857 11.5116 13.7603 11.4465 13.7132C11.3814 13.666 11.3329 13.5995 11.3078 13.5232L10.6262 11.4761C10.4762 11.0262 10.2236 10.6175 9.88828 10.2821C9.55296 9.94682 9.14417 9.69419 8.69429 9.54426L6.64724 8.86261ZM1.25852 12.9451C1.21275 12.9299 1.17293 12.9008 1.1447 12.8617C1.11647 12.8226 1.10128 12.7756 1.10128 12.7274C1.10128 12.6792 1.11647 12.6322 1.1447 12.5931C1.17293 12.554 1.21275 12.5248 1.25852 12.5097L2.48654 12.1007C3.03397 11.9179 3.46304 11.4888 3.64587 10.9414L4.05486 9.71335C4.07001 9.66758 4.09921 9.62776 4.13829 9.59953C4.17737 9.5713 4.22435 9.55611 4.27257 9.55611C4.32077 9.55611 4.36776 9.5713 4.40684 9.59953C4.44592 9.62776 4.47511 9.66758 4.49027 9.71335L4.89926 10.9414C4.98921 11.2114 5.14081 11.4567 5.34204 11.6579C5.54327 11.8592 5.7886 12.0107 6.05859 12.1007L7.28661 12.5097C7.33238 12.5248 7.3722 12.554 7.40043 12.5931C7.42866 12.6322 7.44385 12.6792 7.44385 12.7274C7.44385 12.7756 7.42866 12.8226 7.40043 12.8617C7.3722 12.9008 7.33238 12.9299 7.28661 12.9451L6.05859 13.3541C5.7886 13.444 5.54327 13.5956 5.34204 13.7969C5.14081 13.9981 4.98921 14.2434 4.89926 14.5134L4.49027 15.7414C4.47511 15.7872 4.44592 15.827 4.40684 15.8553C4.36776 15.8835 4.32078 15.8987 4.27257 15.8987C4.22436 15.8987 4.17737 15.8835 4.13829 15.8553C4.09921 15.827 4.07001 15.7872 4.05486 15.7414L3.64587 14.5134C3.55592 14.2434 3.40432 13.9981 3.20309 13.7969C3.00186 13.5956 2.75653 13.444 2.48654 13.3541L1.25852 12.9451ZM0.149917 5.47445C0.119826 5.46402 0.0937323 5.44447 0.0752652 5.41852C0.056798 5.39257 0.0468745 5.36152 0.0468745 5.32967C0.0468745 5.29782 0.056798 5.26676 0.0752651 5.24081C0.0937323 5.21487 0.119826 5.19532 0.149917 5.18488L0.967894 4.91222C1.33355 4.79069 1.61995 4.50429 1.74149 4.13863L2.01414 3.32066C2.02458 3.29056 2.04413 3.26447 2.07007 3.246C2.09602 3.22754 2.12708 3.21761 2.15893 3.21761C2.19078 3.21761 2.22183 3.22754 2.24778 3.246C2.27373 3.26447 2.29328 3.29056 2.30371 3.32066L2.57637 4.13863C2.63632 4.31883 2.73745 4.48258 2.87173 4.61686C3.00602 4.75115 3.16976 4.85228 3.34996 4.91222L4.16794 5.18488C4.19803 5.19532 4.22412 5.21487 4.24259 5.24081C4.26106 5.26676 4.27098 5.29782 4.27098 5.32967C4.27098 5.36152 4.26106 5.39257 4.24259 5.41852C4.22412 5.44447 4.19803 5.46402 4.16794 5.47445L3.34996 5.74711C3.16976 5.80706 3.00602 5.90819 2.87173 6.04247C2.73745 6.17676 2.63632 6.3405 2.57637 6.5207L2.30371 7.33762C2.29328 7.36771 2.27373 7.39381 2.24778 7.41227C2.22183 7.43074 2.19078 7.44066 2.15893 7.44066C2.12708 7.44066 2.09602 7.43074 2.07007 7.41227C2.04413 7.39381 2.02458 7.36771 2.01414 7.33762L1.74149 6.51965C1.61995 6.15399 1.33355 5.86759 0.967894 5.74605L0.150974 5.47445L0.149917 5.47445Z" fill="white"/>
</g>
<defs>
<clipPath id="clip0_87_198">
<rect width="16.9091" height="16.9091" fill="white" transform="translate(0.0454102 16.9546) rotate(-90)"/>
</clipPath>
</defs>
</svg>
